{
  "header": {
    "keySignatures": [
      {
        "key": "C",
        "scale": "major",
        "ticks": 0
      }
    ],
    "meta": [],
    "name": "",
    "ppq": 480,
    "tempos": [
      {
        "bpm": 60,
        "ticks": 0
      }
    ],
    "timeSignatures": [
      {
        "ticks": 0,
        "timeSignature": [
          4,
          4
        ],
        "measures": 0
      }
    ]
  },
  "duration": 12,
  "tracks": [
    {
      "channel": 0,
      "controlChanges": {},
      "pitchBends": [],
      "instrument": {
        "family": "piano",
        "name": "acoustic grand piano",
        "number": 0
      },
      "name": "Steinway Grand Piano",
      "notes": [
        {
          "duration": 0.6020833333333333,
          "durationTicks": 289,
          "midi": 49,
          "name": "C#3",
          "ticks": 0,
          "time": 0,
          "velocity": 0.3700787401574803
        },
        {
          "duration": 0.59375,
          "durationTicks": 285,
          "midi": 53,
          "name": "F3",
          "ticks": 240,
          "time": 0.5,
          "velocity": 0.5354330708661418
        },
        {
          "duration": 0.5520833333333333,
          "durationTicks": 265,
          "midi": 61,
          "name": "C#4",
          "ticks": 480,
          "time": 1,
          "velocity": 0.3464566929133858
        },
        {
          "duration": 0.5916666666666668,
          "durationTicks": 284,
          "midi": 58,
          "name": "A#3",
          "ticks": 720,
          "time": 1.5,
          "velocity": 0.47244094488188976
        },
        {
          "duration": 1.4812500000000002,
          "durationTicks": 711,
          "midi": 51,
          "name": "D#3",
          "ticks": 960,
          "time": 2,
          "velocity": 0.3543307086614173
        },
        {
          "duration": 1.5375,
          "durationTicks": 738,
          "midi": 54,
          "name": "F#3",
          "ticks": 960,
          "time": 2,
          "velocity": 0.3228346456692913
        },
        {
          "duration": 1.6437499999999998,
          "durationTicks": 789,
          "midi": 57,
          "name": "A3",
          "ticks": 960,
          "time": 2,
          "velocity": 0.3858267716535433
        },
        {
          "duration": 0.6729166666666666,
          "durationTicks": 323,
          "midi": 63,
          "name": "D#4",
          "ticks": 1440,
          "time": 3,
          "velocity": 0.3464566929133858
        },
        {
          "duration": 1.041666666666667,
          "durationTicks": 500,
          "midi": 53,
          "name": "F3",
          "ticks": 1920,
          "time": 4,
          "velocity": 0.47244094488188976
        },
        {
          "duration": 1.1437499999999998,
          "durationTicks": 549,
          "midi": 58,
          "name": "A#3",
          "ticks": 2160,
          "time": 4.5,
          "velocity": 0.41732283464566927
        },
        {
          "duration": 0.9208333333333334,
          "durationTicks": 442,
          "midi": 65,
          "name": "F4",
          "ticks": 2400,
          "time": 5,
          "velocity": 0.47244094488188976
        },
        {
          "duration": 0.3416666666666668,
          "durationTicks": 164,
          "midi": 61,
          "name": "C#4",
          "ticks": 2640,
          "time": 5.5,
          "velocity": 0.28346456692913385
        },
        {
          "duration": 2,
          "durationTicks": 960,
          "midi": 54,
          "name": "F#3",
          "ticks": 2880,
          "time": 6,
          "velocity": 0.41732283464566927
        },
        {
          "duration": 2,
          "durationTicks": 960,
          "midi": 58,
          "name": "A#3",
          "ticks": 2880,
          "time": 6,
          "velocity": 0.4094488188976378
        },
        {
          "duration": 2,
          "durationTicks": 960,
          "midi": 60,
          "name": "C4",
          "ticks": 2880,
          "time": 6,
          "velocity": 0.4251968503937008
        },
        {
          "duration": 1.5,
          "durationTicks": 720,
          "midi": 63,
          "name": "D#4",
          "ticks": 3120,
          "time": 6.5,
          "velocity": 0.31496062992125984
        },
        {
          "duration": 1.0270833333333336,
          "durationTicks": 493,
          "midi": 70,
          "name": "A#4",
          "ticks": 3360,
          "time": 7,
          "velocity": 0.4094488188976378
        }
      ],
      "endOfTrackTicks": 3853
    },
    {
      "channel": 0,
      "controlChanges": {},
      "pitchBends": [],
      "instrument": {
        "family": "piano",
        "name": "acoustic grand piano",
        "number": 0
      },
      "name": "Steinway Grand Piano",
      "notes": [
        {
          "duration": 3.9124999999999996,
          "durationTicks": 1878,
          "midi": 53,
          "name": "F3",
          "ticks": 3840,
          "time": 8,
          "velocity": 0.29133858267716534
        },
        {
          "duration": 3.9229166666666675,
          "durationTicks": 1883,
          "midi": 49,
          "name": "C#3",
          "ticks": 3842,
          "time": 8.004166666666666,
          "velocity": 0.33858267716535434
        },
        {
          "duration": 0.5,
          "durationTicks": 240,
          "midi": 58,
          "name": "A#3",
          "ticks": 4080,
          "time": 8.5,
          "velocity": 0.3700787401574803
        },
        {
          "duration": 0.6416666666666675,
          "durationTicks": 308,
          "midi": 65,
          "name": "F4",
          "ticks": 4320,
          "time": 9,
          "velocity": 0.3779527559055118
        },
        {
          "duration": 0.6812500000000004,
          "durationTicks": 327,
          "midi": 70,
          "name": "A#4",
          "ticks": 4560,
          "time": 9.5,
          "velocity": 0.30708661417322836
        },
        {
          "duration": 2,
          "durationTicks": 960,
          "midi": 77,
          "name": "F5",
          "ticks": 4800,
          "time": 10,
          "velocity": 0.2677165354330709
        }
      ],
      "endOfTrackTicks": 5760
    },
    {
      "channel": 0,
      "controlChanges": {},
      "pitchBends": [],
      "instrument": {
        "family": "piano",
        "name": "acoustic grand piano",
        "number": 0
      },
      "name": "Steinway Grand Piano",
      "notes": [
        {
          "duration": 2.7666666666666666,
          "durationTicks": 1328,
          "midi": 34,
          "name": "A#1",
          "ticks": 0,
          "time": 0,
          "velocity": 0.3937007874015748
        },
        {
          "duration": 2.7666666666666666,
          "durationTicks": 1328,
          "midi": 41,
          "name": "F2",
          "ticks": 0,
          "time": 0,
          "velocity": 0.3937007874015748
        },
        {
          "duration": 2,
          "durationTicks": 960,
          "midi": 29,
          "name": "F1",
          "ticks": 960,
          "time": 2,
          "velocity": 0.3779527559055118
        }
      ],
      "endOfTrackTicks": 1920
    },
    {
      "channel": 0,
      "controlChanges": {},
      "pitchBends": [],
      "instrument": {
        "family": "piano",
        "name": "acoustic grand piano",
        "number": 0
      },
      "name": "Steinway Grand Piano",
      "notes": [
        {
          "duration": 1.53125,
          "durationTicks": 735,
          "midi": 34,
          "name": "A#1",
          "ticks": 1925,
          "time": 4.010416666666667,
          "velocity": 0.4645669291338583
        },
        {
          "duration": 2.0166666666666675,
          "durationTicks": 968,
          "midi": 27,
          "name": "D#1",
          "ticks": 2880,
          "time": 6,
          "velocity": 0.47244094488188976
        },
        {
          "duration": 2,
          "durationTicks": 960,
          "midi": 39,
          "name": "D#2",
          "ticks": 2880,
          "time": 6,
          "velocity": 0.3937007874015748
        }
      ],
      "endOfTrackTicks": 3848
    },
    {
      "channel": 0,
      "controlChanges": {},
      "pitchBends": [],
      "instrument": {
        "family": "piano",
        "name": "acoustic grand piano",
        "number": 0
      },
      "name": "Steinway Grand Piano",
      "notes": [
        {
          "duration": 3.939583333333333,
          "durationTicks": 1891,
          "midi": 34,
          "name": "A#1",
          "ticks": 3840,
          "time": 8,
          "velocity": 0.3543307086614173
        },
        {
          "duration": 3.945833333333333,
          "durationTicks": 1894,
          "midi": 46,
          "name": "A#2",
          "ticks": 3840,
          "time": 8,
          "velocity": 0.36220472440944884
        }
      ],
      "endOfTrackTicks": 5760
    }
  ]
}