{
    "header": {
      "keySignatures": [
        {
          "key": "C",
          "scale": "major",
          "ticks": 0
        }
      ],
      "meta": [],
      "name": "",
      "ppq": 480,
      "tempos": [
        {
          "bpm": 80,
          "ticks": 0
        }
      ],
      "timeSignatures": [
        {
          "ticks": 0,
          "timeSignature": [
            4,
            4
          ],
          "measures": 0
        }
      ]
    },
    "duration": 6,
    "tracks": [
      {
        "channel": 0,
        "controlChanges": {},
        "pitchBends": [],
        "instrument": {
          "family": "piano",
          "name": "acoustic grand piano",
          "number": 0
        },
        "name": "Steinway Grand Piano",
        "notes": [
          {
            "duration": 0.36874999999999997,
            "durationTicks": 236,
            "midi": 84,
            "name": "C6",
            "ticks": 0,
            "time": 0,
            "velocity": 0.5275590551181102
          },
          {
            "duration": 0.38749999999999996,
            "durationTicks": 248,
            "midi": 82,
            "name": "A#5",
            "ticks": 240,
            "time": 0.375,
            "velocity": 0.5196850393700787
          },
          {
            "duration": 0.4031250000000002,
            "durationTicks": 258,
            "midi": 73,
            "name": "C#5",
            "ticks": 480,
            "time": 0.75,
            "velocity": 0.3543307086614173
          },
          {
            "duration": 0.5828124999999997,
            "durationTicks": 373,
            "midi": 75,
            "name": "D#5",
            "ticks": 720,
            "time": 1.125,
            "velocity": 0.5196850393700787
          },
          {
            "duration": 0.4296875,
            "durationTicks": 275,
            "midi": 82,
            "name": "A#5",
            "ticks": 960,
            "time": 1.5,
            "velocity": 0.44881889763779526
          },
          {
            "duration": 0.4734375000000002,
            "durationTicks": 303,
            "midi": 80,
            "name": "G#5",
            "ticks": 1200,
            "time": 1.875,
            "velocity": 0.5196850393700787
          },
          {
            "duration": 0.47187500000000027,
            "durationTicks": 302,
            "midi": 72,
            "name": "C5",
            "ticks": 1440,
            "time": 2.25,
            "velocity": 0.5590551181102362
          },
          {
            "duration": 0.4796874999999998,
            "durationTicks": 307,
            "midi": 75,
            "name": "D#5",
            "ticks": 1680,
            "time": 2.625,
            "velocity": 0.3779527559055118
          },
          {
            "duration": 0.4328124999999998,
            "durationTicks": 277,
            "midi": 84,
            "name": "C6",
            "ticks": 1920,
            "time": 3,
            "velocity": 0.5118110236220472
          },
          {
            "duration": 0.3546874999999998,
            "durationTicks": 227,
            "midi": 82,
            "name": "A#5",
            "ticks": 2160,
            "time": 3.375,
            "velocity": 0.5511811023622047
          },
          {
            "duration": 0.39687499999999964,
            "durationTicks": 254,
            "midi": 73,
            "name": "C#5",
            "ticks": 2400,
            "time": 3.75,
            "velocity": 0.44881889763779526
          },
          {
            "duration": 0.4656250000000002,
            "durationTicks": 298,
            "midi": 75,
            "name": "D#5",
            "ticks": 2640,
            "time": 4.125,
            "velocity": 0.5669291338582677
          },
          {
            "duration": 0.4484374999999998,
            "durationTicks": 287,
            "midi": 82,
            "name": "A#5",
            "ticks": 2880,
            "time": 4.5,
            "velocity": 0.5590551181102362
          },
          {
            "duration": 0.41562499999999947,
            "durationTicks": 266,
            "midi": 80,
            "name": "G#5",
            "ticks": 3120,
            "time": 4.875,
            "velocity": 0.5590551181102362
          },
          {
            "duration": 0.43593749999999964,
            "durationTicks": 279,
            "midi": 72,
            "name": "C5",
            "ticks": 3360,
            "time": 5.25,
            "velocity": 0.6220472440944882
          },
          {
            "duration": 0.21875,
            "durationTicks": 140,
            "midi": 75,
            "name": "D#5",
            "ticks": 3600,
            "time": 5.625,
            "velocity": 0.5669291338582677
          }
        ],
        "endOfTrackTicks": 3840
      },
      {
        "channel": 0,
        "controlChanges": {},
        "pitchBends": [],
        "instrument": {
          "family": "piano",
          "name": "acoustic grand piano",
          "number": 0
        },
        "name": "Steinway Grand Piano",
        "notes": [
          {
            "duration": 0.41250000000000003,
            "durationTicks": 264,
            "midi": 61,
            "name": "C#4",
            "ticks": 0,
            "time": 0,
            "velocity": 0.4645669291338583
          },
          {
            "duration": 0.715625,
            "durationTicks": 458,
            "midi": 63,
            "name": "D#4",
            "ticks": 240,
            "time": 0.375,
            "velocity": 0.25984251968503935
          },
          {
            "duration": 0.65625,
            "durationTicks": 420,
            "midi": 67,
            "name": "G4",
            "ticks": 240,
            "time": 0.375,
            "velocity": 0.5196850393700787
          },
          {
            "duration": 0.5343749999999998,
            "durationTicks": 342,
            "midi": 63,
            "name": "D#4",
            "ticks": 720,
            "time": 1.125,
            "velocity": 0.2755905511811024
          },
          {
            "duration": 0.4984375000000001,
            "durationTicks": 319,
            "midi": 67,
            "name": "G4",
            "ticks": 720,
            "time": 1.125,
            "velocity": 0.5748031496062992
          },
          {
            "duration": 1.4968749999999997,
            "durationTicks": 958,
            "midi": 60,
            "name": "C4",
            "ticks": 960,
            "time": 1.5,
            "velocity": 0.5275590551181102
          },
          {
            "duration": 0.640625,
            "durationTicks": 410,
            "midi": 63,
            "name": "D#4",
            "ticks": 1200,
            "time": 1.875,
            "velocity": 0.30708661417322836
          },
          {
            "duration": 0.6187500000000004,
            "durationTicks": 396,
            "midi": 68,
            "name": "G#4",
            "ticks": 1200,
            "time": 1.875,
            "velocity": 0.5354330708661418
          },
          {
            "duration": 0.5609375000000001,
            "durationTicks": 359,
            "midi": 63,
            "name": "D#4",
            "ticks": 1680,
            "time": 2.625,
            "velocity": 0.25196850393700787
          },
          {
            "duration": 0.5609375000000001,
            "durationTicks": 359,
            "midi": 68,
            "name": "G#4",
            "ticks": 1680,
            "time": 2.625,
            "velocity": 0.4566929133858268
          },
          {
            "duration": 1.5062500000000005,
            "durationTicks": 964,
            "midi": 61,
            "name": "C#4",
            "ticks": 1920,
            "time": 3,
            "velocity": 0.5039370078740157
          },
          {
            "duration": 0.7093750000000005,
            "durationTicks": 454,
            "midi": 63,
            "name": "D#4",
            "ticks": 2160,
            "time": 3.375,
            "velocity": 0.2440944881889764
          },
          {
            "duration": 0.6078125000000001,
            "durationTicks": 389,
            "midi": 67,
            "name": "G4",
            "ticks": 2160,
            "time": 3.375,
            "velocity": 0.5433070866141733
          },
          {
            "duration": 0.5234375,
            "durationTicks": 335,
            "midi": 63,
            "name": "D#4",
            "ticks": 2640,
            "time": 4.125,
            "velocity": 0.2283464566929134
          },
          {
            "duration": 0.5062499999999996,
            "durationTicks": 324,
            "midi": 67,
            "name": "G4",
            "ticks": 2640,
            "time": 4.125,
            "velocity": 0.5354330708661418
          },
          {
            "duration": 1.5,
            "durationTicks": 960,
            "midi": 60,
            "name": "C4",
            "ticks": 2880,
            "time": 4.5,
            "velocity": 0.30708661417322836
          },
          {
            "duration": 0.7109375,
            "durationTicks": 455,
            "midi": 63,
            "name": "D#4",
            "ticks": 3120,
            "time": 4.875,
            "velocity": 0.29133858267716534
          },
          {
            "duration": 0.6328125,
            "durationTicks": 405,
            "midi": 68,
            "name": "G#4",
            "ticks": 3120,
            "time": 4.875,
            "velocity": 0.4566929133858268
          },
          {
            "duration": 0.375,
            "durationTicks": 240,
            "midi": 63,
            "name": "D#4",
            "ticks": 3600,
            "time": 5.625,
            "velocity": 0.3779527559055118
          },
          {
            "duration": 0.375,
            "durationTicks": 240,
            "midi": 68,
            "name": "G#4",
            "ticks": 3600,
            "time": 5.625,
            "velocity": 0.4330708661417323
          }
        ],
        "endOfTrackTicks": 3840
      }
    ]
  }