{
    "header": {
      "keySignatures": [
        {
          "key": "C",
          "scale": "major",
          "ticks": 0
        }
      ],
      "meta": [],
      "name": "",
      "ppq": 480,
      "tempos": [
        {
          "bpm": 80,
          "ticks": 0
        }
      ],
      "timeSignatures": [
        {
          "ticks": 0,
          "timeSignature": [
            4,
            4
          ],
          "measures": 0
        }
      ]
    },
    "tracks": [
      {
        "channel": 0,
        "controlChanges": {},
        "pitchBends": [],
        "instrument": {
          "family": "piano",
          "name": "acoustic grand piano",
          "number": 0
        },
        "name": "Steinway Grand Piano",
        "notes": [
          {
            "duration": 0.19218749999999998,
            "durationTicks": 123,
            "midi": 61,
            "name": "C#4",
            "ticks": 0,
            "time": 0,
            "velocity": 0.5826771653543307
          },
          {
            "duration": 0.1375,
            "durationTicks": 88,
            "midi": 63,
            "name": "D#4",
            "ticks": 85,
            "time": 0.1328125,
            "velocity": 0.6456692913385826
          },
          {
            "duration": 0.16562500000000008,
            "durationTicks": 106,
            "midi": 65,
            "name": "F4",
            "ticks": 161,
            "time": 0.25156249999999997,
            "velocity": 0.6299212598425197
          },
          {
            "duration": 0.13750000000000007,
            "durationTicks": 88,
            "midi": 68,
            "name": "G#4",
            "ticks": 244,
            "time": 0.38125,
            "velocity": 0.6220472440944882
          },
          {
            "duration": 0.15312499999999996,
            "durationTicks": 98,
            "midi": 70,
            "name": "A#4",
            "ticks": 324,
            "time": 0.5062500000000001,
            "velocity": 0.7007874015748031
          },
          {
            "duration": 0.0625,
            "durationTicks": 40,
            "midi": 73,
            "name": "C#5",
            "ticks": 405,
            "time": 0.6328125,
            "velocity": 0.6141732283464567
          },
          {
            "duration": 0.140625,
            "durationTicks": 90,
            "midi": 73,
            "name": "C#5",
            "ticks": 482,
            "time": 0.753125,
            "velocity": 0.5748031496062992
          },
          {
            "duration": 0.12031249999999982,
            "durationTicks": 77,
            "midi": 75,
            "name": "D#5",
            "ticks": 565,
            "time": 0.8828125,
            "velocity": 0.6614173228346457
          },
          {
            "duration": 0.1859375000000001,
            "durationTicks": 119,
            "midi": 77,
            "name": "F5",
            "ticks": 640,
            "time": 1,
            "velocity": 0.6692913385826772
          },
          {
            "duration": 0.1640625,
            "durationTicks": 105,
            "midi": 80,
            "name": "G#5",
            "ticks": 720,
            "time": 1.125,
            "velocity": 0.6141732283464567
          },
          {
            "duration": 0.1499999999999999,
            "durationTicks": 96,
            "midi": 82,
            "name": "A#5",
            "ticks": 796,
            "time": 1.2437500000000001,
            "velocity": 0.6220472440944882
          },
          {
            "duration": 0.05312500000000009,
            "durationTicks": 34,
            "midi": 85,
            "name": "C#6",
            "ticks": 881,
            "time": 1.3765625,
            "velocity": 0.6692913385826772
          },
          {
            "duration": 0.15156250000000004,
            "durationTicks": 97,
            "midi": 85,
            "name": "C#6",
            "ticks": 958,
            "time": 1.496875,
            "velocity": 0.5039370078740157
          },
          {
            "duration": 0.08437500000000009,
            "durationTicks": 54,
            "midi": 87,
            "name": "D#6",
            "ticks": 1040,
            "time": 1.625,
            "velocity": 0.6535433070866141
          },
          {
            "duration": 0.1640625,
            "durationTicks": 105,
            "midi": 89,
            "name": "F6",
            "ticks": 1119,
            "time": 1.7484374999999999,
            "velocity": 0.6614173228346457
          },
          {
            "duration": 0.14374999999999982,
            "durationTicks": 92,
            "midi": 92,
            "name": "G#6",
            "ticks": 1202,
            "time": 1.8781250000000003,
            "velocity": 0.6614173228346457
          },
          {
            "duration": 0.07187499999999947,
            "durationTicks": 46,
            "midi": 94,
            "name": "A#6",
            "ticks": 1283,
            "time": 2.0046875,
            "velocity": 0.7086614173228346
          },
          {
            "duration": 0.035937499999999734,
            "durationTicks": 23,
            "midi": 97,
            "name": "C#7",
            "ticks": 1356,
            "time": 2.1187500000000004,
            "velocity": 0.7165354330708661
          },
          {
            "duration": 0.3656250000000001,
            "durationTicks": 234,
            "midi": 85,
            "name": "C#6",
            "ticks": 1436,
            "time": 2.24375,
            "velocity": 0.6535433070866141
          },
          {
            "duration": 0.38906249999999964,
            "durationTicks": 249,
            "midi": 97,
            "name": "C#7",
            "ticks": 1443,
            "time": 2.2546875,
            "velocity": 0.7322834645669292
          }
        ],
        "endOfTrackTicks": 1920
      },
      {
        "channel": 0,
        "controlChanges": {},
        "pitchBends": [],
        "instrument": {
          "family": "piano",
          "name": "acoustic grand piano",
          "number": 0
        },
        "name": "Steinway Grand Piano",
        "notes": [
          {
            "duration": 0.60625,
            "durationTicks": 388,
            "midi": 42,
            "name": "F#2",
            "ticks": 0,
            "time": 0,
            "velocity": 0.5984251968503937
          },
          {
            "duration": 0.565625,
            "durationTicks": 362,
            "midi": 54,
            "name": "F#3",
            "ticks": 0,
            "time": 0,
            "velocity": 0.5984251968503937
          },
          {
            "duration": 0.503125,
            "durationTicks": 322,
            "midi": 37,
            "name": "C#2",
            "ticks": 480,
            "time": 0.75,
            "velocity": 0.6535433070866141
          },
          {
            "duration": 0.46875,
            "durationTicks": 300,
            "midi": 49,
            "name": "C#3",
            "ticks": 480,
            "time": 0.75,
            "velocity": 0.6535433070866141
          },
          {
            "duration": 0.4921875,
            "durationTicks": 315,
            "midi": 32,
            "name": "G#1",
            "ticks": 960,
            "time": 1.5,
            "velocity": 0.6771653543307087
          },
          {
            "duration": 0.4671875000000001,
            "durationTicks": 299,
            "midi": 44,
            "name": "G#2",
            "ticks": 960,
            "time": 1.5,
            "velocity": 0.6771653543307087
          },
          {
            "duration": 0.2578125,
            "durationTicks": 165,
            "midi": 25,
            "name": "C#1",
            "ticks": 1440,
            "time": 2.25,
            "velocity": 0.7165354330708661
          },
          {
            "duration": 0.265625,
            "durationTicks": 170,
            "midi": 37,
            "name": "C#2",
            "ticks": 1440,
            "time": 2.25,
            "velocity": 0.7165354330708661
          }
        ],
        "endOfTrackTicks": 1920
      }
    ]
  }