{
    "header": {
      "keySignatures": [
        {
          "key": "C",
          "scale": "major",
          "ticks": 0
        }
      ],
      "meta": [],
      "name": "",
      "ppq": 480,
      "tempos": [
        {
          "bpm": 80,
          "ticks": 0
        }
      ],
      "timeSignatures": [
        {
          "ticks": 0,
          "timeSignature": [
            4,
            4
          ],
          "measures": 0
        }
      ]
    },
    "tracks": [
      {
        "channel": 0,
        "controlChanges": {},
        "pitchBends": [],
        "instrument": {
          "family": "piano",
          "name": "acoustic grand piano",
          "number": 0
        },
        "name": "Steinway Grand Piano",
        "notes": [
          {
            "duration": 2.4375,
            "durationTicks": 1560,
            "midi": 66,
            "name": "F#4",
            "ticks": 0,
            "time": 0,
            "velocity": 0.5275590551181102
          },
          {
            "duration": 2.3812499999999996,
            "durationTicks": 1524,
            "midi": 70,
            "name": "A#4",
            "ticks": 0,
            "time": 0,
            "velocity": 0.4251968503937008
          },
          {
            "duration": 2.3890625,
            "durationTicks": 1529,
            "midi": 73,
            "name": "C#5",
            "ticks": 0,
            "time": 0,
            "velocity": 0.47244094488188976
          },
          {
            "duration": 1.934375,
            "durationTicks": 1238,
            "midi": 75,
            "name": "D#5",
            "ticks": 0,
            "time": 0,
            "velocity": 0.4094488188976378
          },
          {
            "duration": 1.9453125,
            "durationTicks": 1245,
            "midi": 80,
            "name": "G#5",
            "ticks": 480,
            "time": 0.75,
            "velocity": 0.5196850393700787
          },
          {
            "duration": 0.5140625000000001,
            "durationTicks": 329,
            "midi": 75,
            "name": "D#5",
            "ticks": 1440,
            "time": 2.25,
            "velocity": 0.48031496062992124
          },
          {
            "duration": 2.2203124999999995,
            "durationTicks": 1421,
            "midi": 65,
            "name": "F4",
            "ticks": 1920,
            "time": 3,
            "velocity": 0.36220472440944884
          },
          {
            "duration": 2.1046875000000007,
            "durationTicks": 1347,
            "midi": 68,
            "name": "G#4",
            "ticks": 1920,
            "time": 3,
            "velocity": 0.5118110236220472
          },
          {
            "duration": 2.1015625,
            "durationTicks": 1345,
            "midi": 73,
            "name": "C#5",
            "ticks": 1920,
            "time": 3,
            "velocity": 0.4566929133858268
          },
          {
            "duration": 2.046875,
            "durationTicks": 1310,
            "midi": 75,
            "name": "D#5",
            "ticks": 1920,
            "time": 3,
            "velocity": 0.4881889763779528
          },
          {
            "duration": 1.5625,
            "durationTicks": 1000,
            "midi": 77,
            "name": "F5",
            "ticks": 2400,
            "time": 3.75,
            "velocity": 0.5196850393700787
          },
          {
            "duration": 0.8718749999999993,
            "durationTicks": 558,
            "midi": 65,
            "name": "F4",
            "ticks": 3360,
            "time": 5.25,
            "velocity": 0.5433070866141733
          },
          {
            "duration": 0.5718750000000004,
            "durationTicks": 366,
            "midi": 68,
            "name": "G#4",
            "ticks": 3360,
            "time": 5.25,
            "velocity": 0.5275590551181102
          },
          {
            "duration": 0.5859375,
            "durationTicks": 375,
            "midi": 73,
            "name": "C#5",
            "ticks": 3360,
            "time": 5.25,
            "velocity": 0.47244094488188976
          },
          {
            "duration": 0.5671874999999993,
            "durationTicks": 363,
            "midi": 75,
            "name": "D#5",
            "ticks": 3360,
            "time": 5.25,
            "velocity": 0.49606299212598426
          },
          {
            "duration": 1.5,
            "durationTicks": 960,
            "midi": 63,
            "name": "D#4",
            "ticks": 3840,
            "time": 6,
            "velocity": 0.31496062992125984
          },
          {
            "duration": 1.5,
            "durationTicks": 960,
            "midi": 70,
            "name": "A#4",
            "ticks": 3840,
            "time": 6,
            "velocity": 0.5511811023622047
          },
          {
            "duration": 1.5,
            "durationTicks": 960,
            "midi": 73,
            "name": "C#5",
            "ticks": 3840,
            "time": 6,
            "velocity": 0.5669291338582677
          },
          {
            "duration": 1.5,
            "durationTicks": 960,
            "midi": 75,
            "name": "D#5",
            "ticks": 3840,
            "time": 6,
            "velocity": 0.5196850393700787
          },
          {
            "duration": 1.5625,
            "durationTicks": 1000,
            "midi": 78,
            "name": "F#5",
            "ticks": 4320,
            "time": 6.75,
            "velocity": 0.5196850393700787
          },
          {
            "duration": 0.375,
            "durationTicks": 240,
            "midi": 66,
            "name": "F#4",
            "ticks": 4560,
            "time": 7.125,
            "velocity": 0.5354330708661418
          }
        ],
        "endOfTrackTicks": 5320
      },
      {
        "channel": 0,
        "controlChanges": {},
        "pitchBends": [],
        "instrument": {
          "family": "piano",
          "name": "acoustic grand piano",
          "number": 0
        },
        "name": "Steinway Grand Piano",
        "notes": [
          {
            "duration": 1.3359375,
            "durationTicks": 855,
            "midi": 63,
            "name": "D#4",
            "ticks": 4800,
            "time": 7.5,
            "velocity": 0.5354330708661418
          },
          {
            "duration": 1.3125,
            "durationTicks": 840,
            "midi": 66,
            "name": "F#4",
            "ticks": 4800,
            "time": 7.5,
            "velocity": 0.5354330708661418
          },
          {
            "duration": 1.28125,
            "durationTicks": 820,
            "midi": 70,
            "name": "A#4",
            "ticks": 4800,
            "time": 7.5,
            "velocity": 0.5354330708661418
          },
          {
            "duration": 0.5187500000000007,
            "durationTicks": 332,
            "midi": 73,
            "name": "C#5",
            "ticks": 4800,
            "time": 7.5,
            "velocity": 0.5354330708661418
          },
          {
            "duration": 0.47031250000000036,
            "durationTicks": 301,
            "midi": 56,
            "name": "G#3",
            "ticks": 5280,
            "time": 8.25,
            "velocity": 0.5354330708661418
          },
          {
            "duration": 0.5484374999999986,
            "durationTicks": 351,
            "midi": 72,
            "name": "C5",
            "ticks": 5280,
            "time": 8.25,
            "velocity": 0.5354330708661418
          },
          {
            "duration": 0.5359374999999993,
            "durationTicks": 343,
            "midi": 77,
            "name": "F5",
            "ticks": 5280,
            "time": 8.25,
            "velocity": 0.5354330708661418
          },
          {
            "duration": 1.3968750000000014,
            "durationTicks": 894,
            "midi": 49,
            "name": "C#3",
            "ticks": 5760,
            "time": 9,
            "velocity": 0.5354330708661418
          },
          {
            "duration": 2.3125,
            "durationTicks": 1480,
            "midi": 61,
            "name": "C#4",
            "ticks": 5760,
            "time": 9,
            "velocity": 0.4251968503937008
          },
          {
            "duration": 2.3656249999999996,
            "durationTicks": 1514,
            "midi": 63,
            "name": "D#4",
            "ticks": 5760,
            "time": 9,
            "velocity": 0.4645669291338583
          },
          {
            "duration": 1.9453125,
            "durationTicks": 1245,
            "midi": 65,
            "name": "F4",
            "ticks": 6000,
            "time": 9.375,
            "velocity": 0.31496062992125984
          },
          {
            "duration": 1.5859375,
            "durationTicks": 1015,
            "midi": 72,
            "name": "C5",
            "ticks": 6240,
            "time": 9.75,
            "velocity": 0.3228346456692913
          },
          {
            "duration": 1.2671875000000004,
            "durationTicks": 811,
            "midi": 68,
            "name": "G#4",
            "ticks": 6480,
            "time": 10.125,
            "velocity": 0.2992125984251969
          },
          {
            "duration": 0.8484374999999993,
            "durationTicks": 543,
            "midi": 77,
            "name": "F5",
            "ticks": 6720,
            "time": 10.5,
            "velocity": 0.4645669291338583
          }
        ],
        "endOfTrackTicks": 7680
      }
    ]
  }