{
    "header": {
      "keySignatures": [
        {
          "key": "C",
          "scale": "major",
          "ticks": 0
        }
      ],
      "meta": [],
      "name": "",
      "ppq": 480,
      "tempos": [
        {
          "bpm": 80,
          "ticks": 0
        }
      ],
      "timeSignatures": [
        {
          "ticks": 0,
          "timeSignature": [
            4,
            4
          ],
          "measures": 0
        }
      ]
    },
    "tracks": [
      {
        "channel": 0,
        "controlChanges": {
          "18": [
            {
              "number": 18,
              "ticks": 7451,
              "time": 11.6421875,
              "value": 0.03937007874015748
            }
          ]
        },
        "pitchBends": [],
        "instrument": {
          "family": "piano",
          "name": "acoustic grand piano",
          "number": 0
        },
        "name": "Steinway Grand Piano",
        "notes": [
          {
            "duration": 0.9671875000000001,
            "durationTicks": 619,
            "midi": 65,
            "name": "F4",
            "ticks": 960,
            "time": 1.5,
            "velocity": 0.3937007874015748
          },
          {
            "duration": 0.6546875000000001,
            "durationTicks": 419,
            "midi": 68,
            "name": "G#4",
            "ticks": 1200,
            "time": 1.875,
            "velocity": 0.44881889763779526
          },
          {
            "duration": 0.3203125,
            "durationTicks": 205,
            "midi": 72,
            "name": "C5",
            "ticks": 1440,
            "time": 2.25,
            "velocity": 0.5275590551181102
          },
          {
            "duration": 0.4703124999999999,
            "durationTicks": 301,
            "midi": 73,
            "name": "C#5",
            "ticks": 1600,
            "time": 2.5,
            "velocity": 0.44881889763779526
          },
          {
            "duration": 0.18125000000000036,
            "durationTicks": 116,
            "midi": 77,
            "name": "F5",
            "ticks": 1737,
            "time": 2.7140625,
            "velocity": 0.6062992125984252
          },
          {
            "duration": 1.1078125000000005,
            "durationTicks": 709,
            "midi": 78,
            "name": "F#5",
            "ticks": 1920,
            "time": 3,
            "velocity": 0.5118110236220472
          },
          {
            "duration": 1.3421875000000005,
            "durationTicks": 859,
            "midi": 70,
            "name": "A#4",
            "ticks": 2640,
            "time": 4.125,
            "velocity": 0.33070866141732286
          },
          {
            "duration": 0.5703125,
            "durationTicks": 365,
            "midi": 65,
            "name": "F4",
            "ticks": 4800,
            "time": 7.5,
            "velocity": 0.36220472440944884
          },
          {
            "duration": 0.6515625000000007,
            "durationTicks": 417,
            "midi": 68,
            "name": "G#4",
            "ticks": 5040,
            "time": 7.875,
            "velocity": 0.3700787401574803
          },
          {
            "duration": 0.3093749999999993,
            "durationTicks": 198,
            "midi": 72,
            "name": "C5",
            "ticks": 5280,
            "time": 8.25,
            "velocity": 0.6220472440944882
          },
          {
            "duration": 0.6078125000000014,
            "durationTicks": 389,
            "midi": 73,
            "name": "C#5",
            "ticks": 5440,
            "time": 8.5,
            "velocity": 0.6377952755905512
          },
          {
            "duration": 0.3718749999999993,
            "durationTicks": 238,
            "midi": 77,
            "name": "F5",
            "ticks": 5600,
            "time": 8.75,
            "velocity": 0.6614173228346457
          },
          {
            "duration": 1.1796875,
            "durationTicks": 755,
            "midi": 80,
            "name": "G#5",
            "ticks": 5760,
            "time": 9,
            "velocity": 0.4330708661417323
          },
          {
            "duration": 1.5296874999999996,
            "durationTicks": 979,
            "midi": 75,
            "name": "D#5",
            "ticks": 6480,
            "time": 10.125,
            "velocity": 0.44881889763779526
          }
        ],
        "endOfTrackTicks": 7680
      },
      {
        "channel": 0,
        "controlChanges": {},
        "pitchBends": [],
        "instrument": {
          "family": "piano",
          "name": "acoustic grand piano",
          "number": 0
        },
        "name": "Steinway Grand Piano",
        "notes": [
          {
            "duration": 2.7359375,
            "durationTicks": 1751,
            "midi": 37,
            "name": "C#2",
            "ticks": 0,
            "time": 0,
            "velocity": 0.3543307086614173
          },
          {
            "duration": 2.5359375,
            "durationTicks": 1623,
            "midi": 53,
            "name": "F3",
            "ticks": 0,
            "time": 0,
            "velocity": 0.41732283464566927
          },
          {
            "duration": 2.4671875,
            "durationTicks": 1579,
            "midi": 56,
            "name": "G#3",
            "ticks": 0,
            "time": 0,
            "velocity": 0.4409448818897638
          },
          {
            "duration": 0.6359375,
            "durationTicks": 407,
            "midi": 61,
            "name": "C#4",
            "ticks": 0,
            "time": 0,
            "velocity": 0.3937007874015748
          },
          {
            "duration": 2.4921875,
            "durationTicks": 1595,
            "midi": 44,
            "name": "G#2",
            "ticks": 240,
            "time": 0.375,
            "velocity": 0.2125984251968504
          },
          {
            "duration": 0.5812499999999998,
            "durationTicks": 372,
            "midi": 61,
            "name": "C#4",
            "ticks": 480,
            "time": 0.75,
            "velocity": 0.3700787401574803
          },
          {
            "duration": 1.3265624999999996,
            "durationTicks": 849,
            "midi": 49,
            "name": "C#3",
            "ticks": 720,
            "time": 1.125,
            "velocity": 0.44881889763779526
          },
          {
            "duration": 0.6281249999999998,
            "durationTicks": 402,
            "midi": 61,
            "name": "C#4",
            "ticks": 960,
            "time": 1.5,
            "velocity": 0.49606299212598426
          },
          {
            "duration": 0.75,
            "durationTicks": 480,
            "midi": 61,
            "name": "C#4",
            "ticks": 1440,
            "time": 2.25,
            "velocity": 0.4409448818897638
          },
          {
            "duration": 0.9671875000000005,
            "durationTicks": 619,
            "midi": 49,
            "name": "C#3",
            "ticks": 1680,
            "time": 2.625,
            "velocity": 0.2204724409448819
          },
          {
            "duration": 2.8031249999999996,
            "durationTicks": 1794,
            "midi": 37,
            "name": "C#2",
            "ticks": 1920,
            "time": 3,
            "velocity": 0.48031496062992124
          },
          {
            "duration": 2.6671875000000007,
            "durationTicks": 1707,
            "midi": 54,
            "name": "F#3",
            "ticks": 1920,
            "time": 3,
            "velocity": 0.3464566929133858
          },
          {
            "duration": 2.5890625,
            "durationTicks": 1657,
            "midi": 58,
            "name": "A#3",
            "ticks": 1920,
            "time": 3,
            "velocity": 0.47244094488188976
          },
          {
            "duration": 0.5343750000000003,
            "durationTicks": 342,
            "midi": 63,
            "name": "D#4",
            "ticks": 1920,
            "time": 3,
            "velocity": 0.5354330708661418
          },
          {
            "duration": 2.8984375,
            "durationTicks": 1855,
            "midi": 44,
            "name": "G#2",
            "ticks": 2160,
            "time": 3.375,
            "velocity": 0.4881889763779528
          },
          {
            "duration": 0.5499999999999998,
            "durationTicks": 352,
            "midi": 63,
            "name": "D#4",
            "ticks": 2400,
            "time": 3.75,
            "velocity": 0.33858267716535434
          },
          {
            "duration": 2.6234374999999996,
            "durationTicks": 1679,
            "midi": 49,
            "name": "C#3",
            "ticks": 2640,
            "time": 4.125,
            "velocity": 0.3228346456692913
          },
          {
            "duration": 0.4718749999999998,
            "durationTicks": 302,
            "midi": 63,
            "name": "D#4",
            "ticks": 2880,
            "time": 4.5,
            "velocity": 0.4330708661417323
          },
          {
            "duration": 0.9124999999999996,
            "durationTicks": 584,
            "midi": 63,
            "name": "D#4",
            "ticks": 3360,
            "time": 5.25,
            "velocity": 0.48031496062992124
          },
          {
            "duration": 2.6937499999999996,
            "durationTicks": 1724,
            "midi": 37,
            "name": "C#2",
            "ticks": 3840,
            "time": 6,
            "velocity": 0.3779527559055118
          },
          {
            "duration": 3.0718750000000004,
            "durationTicks": 1966,
            "midi": 56,
            "name": "G#3",
            "ticks": 3840,
            "time": 6,
            "velocity": 0.33070866141732286
          },
          {
            "duration": 2.6203125000000007,
            "durationTicks": 1677,
            "midi": 60,
            "name": "C4",
            "ticks": 3840,
            "time": 6,
            "velocity": 0.5275590551181102
          },
          {
            "duration": 0.46875,
            "durationTicks": 300,
            "midi": 65,
            "name": "F4",
            "ticks": 3840,
            "time": 6,
            "velocity": 0.6535433070866141
          },
          {
            "duration": 0.43437500000000107,
            "durationTicks": 278,
            "midi": 65,
            "name": "F4",
            "ticks": 4320,
            "time": 6.75,
            "velocity": 0.5984251968503937
          },
          {
            "duration": 2.9359374999999996,
            "durationTicks": 1879,
            "midi": 49,
            "name": "C#3",
            "ticks": 4560,
            "time": 7.125,
            "velocity": 0.30708661417322836
          },
          {
            "duration": 0.453125,
            "durationTicks": 290,
            "midi": 65,
            "name": "F4",
            "ticks": 4800,
            "time": 7.5,
            "velocity": 0.5354330708661418
          },
          {
            "duration": 0.45781250000000107,
            "durationTicks": 293,
            "midi": 65,
            "name": "F4",
            "ticks": 5280,
            "time": 8.25,
            "velocity": 0.5354330708661418
          },
          {
            "duration": 0.390625,
            "durationTicks": 250,
            "midi": 44,
            "name": "G#2",
            "ticks": 5520,
            "time": 8.625,
            "velocity": 0.4645669291338583
          },
          {
            "duration": 2.590625000000001,
            "durationTicks": 1658,
            "midi": 37,
            "name": "C#2",
            "ticks": 5760,
            "time": 9,
            "velocity": 0.5196850393700787
          },
          {
            "duration": 0.5562500000000004,
            "durationTicks": 356,
            "midi": 58,
            "name": "A#3",
            "ticks": 5760,
            "time": 9,
            "velocity": 0.5196850393700787
          },
          {
            "duration": 0.5609374999999996,
            "durationTicks": 359,
            "midi": 63,
            "name": "D#4",
            "ticks": 5760,
            "time": 9,
            "velocity": 0.5039370078740157
          },
          {
            "duration": 2.3203125,
            "durationTicks": 1485,
            "midi": 54,
            "name": "F#3",
            "ticks": 6000,
            "time": 9.375,
            "velocity": 0.30708661417322836
          },
          {
            "duration": 1.90625,
            "durationTicks": 1220,
            "midi": 58,
            "name": "A#3",
            "ticks": 6240,
            "time": 9.75,
            "velocity": 0.36220472440944884
          },
          {
            "duration": 0.5421875000000007,
            "durationTicks": 347,
            "midi": 63,
            "name": "D#4",
            "ticks": 6240,
            "time": 9.75,
            "velocity": 0.2992125984251969
          },
          {
            "duration": 1.4906250000000014,
            "durationTicks": 954,
            "midi": 49,
            "name": "C#3",
            "ticks": 6480,
            "time": 10.125,
            "velocity": 0.49606299212598426
          },
          {
            "duration": 0.5015624999999986,
            "durationTicks": 321,
            "midi": 63,
            "name": "D#4",
            "ticks": 6720,
            "time": 10.5,
            "velocity": 0.41732283464566927
          },
          {
            "duration": 0.4484375000000007,
            "durationTicks": 287,
            "midi": 63,
            "name": "D#4",
            "ticks": 7200,
            "time": 11.25,
            "velocity": 0.18110236220472442
          }
        ],
        "endOfTrackTicks": 7680
      }
    ]
  }