{
    "header": {
      "keySignatures": [
        {
          "key": "C",
          "scale": "major",
          "ticks": 0
        }
      ],
      "meta": [],
      "name": "",
      "ppq": 480,
      "tempos": [
        {
          "bpm": 80,
          "ticks": 0
        }
      ],
      "timeSignatures": [
        {
          "ticks": 0,
          "timeSignature": [
            4,
            4
          ],
          "measures": 0
        }
      ]
    },
    "duration": 6,
    "tracks": [
      {
        "channel": 0,
        "controlChanges": {},
        "pitchBends": [],
        "instrument": {
          "family": "piano",
          "name": "acoustic grand piano",
          "number": 0
        },
        "name": "Steinway Grand Piano",
        "notes": [
          {
            "duration": 0.3484375,
            "durationTicks": 223,
            "midi": 80,
            "name": "G#5",
            "ticks": 0,
            "time": 0,
            "velocity": 0.4881889763779528
          },
          {
            "duration": 0.42656250000000007,
            "durationTicks": 273,
            "midi": 87,
            "name": "D#6",
            "ticks": 240,
            "time": 0.375,
            "velocity": 0.48031496062992124
          },
          {
            "duration": 0.503125,
            "durationTicks": 322,
            "midi": 89,
            "name": "F6",
            "ticks": 480,
            "time": 0.75,
            "velocity": 0.5433070866141733
          },
          {
            "duration": 0.4203125000000001,
            "durationTicks": 269,
            "midi": 96,
            "name": "C7",
            "ticks": 720,
            "time": 1.125,
            "velocity": 0.3937007874015748
          },
          {
            "duration": 1.1515625000000003,
            "durationTicks": 737,
            "midi": 91,
            "name": "G6",
            "ticks": 960,
            "time": 1.5,
            "velocity": 0.4645669291338583
          },
          {
            "duration": 0.4296875,
            "durationTicks": 275,
            "midi": 84,
            "name": "C6",
            "ticks": 1200,
            "time": 1.875,
            "velocity": 0.4566929133858268
          },
          {
            "duration": 0.4171874999999998,
            "durationTicks": 267,
            "midi": 80,
            "name": "G#5",
            "ticks": 1440,
            "time": 2.25,
            "velocity": 0.5196850393700787
          },
          {
            "duration": 0.43593749999999964,
            "durationTicks": 279,
            "midi": 84,
            "name": "C6",
            "ticks": 1680,
            "time": 2.625,
            "velocity": 0.44881889763779526
          }
        ],
        "endOfTrackTicks": 1959
      },
      {
        "channel": 0,
        "controlChanges": {},
        "pitchBends": [],
        "instrument": {
          "family": "piano",
          "name": "acoustic grand piano",
          "number": 0
        },
        "name": "Steinway Grand Piano",
        "notes": [
          {
            "duration": 0.4375,
            "durationTicks": 280,
            "midi": 76,
            "name": "E5",
            "ticks": 1920,
            "time": 3,
            "velocity": 0.5590551181102362
          },
          {
            "duration": 0.4375,
            "durationTicks": 280,
            "midi": 79,
            "name": "G5",
            "ticks": 1920,
            "time": 3,
            "velocity": 0.5590551181102362
          },
          {
            "duration": 0.22968750000000027,
            "durationTicks": 147,
            "midi": 85,
            "name": "C#6",
            "ticks": 2160,
            "time": 3.375,
            "velocity": 0.5905511811023622
          },
          {
            "duration": 0.1859375000000001,
            "durationTicks": 119,
            "midi": 84,
            "name": "C6",
            "ticks": 2280,
            "time": 3.5625,
            "velocity": 0.5748031496062992
          },
          {
            "duration": 0.375,
            "durationTicks": 240,
            "midi": 82,
            "name": "A#5",
            "ticks": 2400,
            "time": 3.75,
            "velocity": 0.6141732283464567
          },
          {
            "duration": 0.40468750000000053,
            "durationTicks": 259,
            "midi": 84,
            "name": "C6",
            "ticks": 2640,
            "time": 4.125,
            "velocity": 0.6692913385826772
          },
          {
            "duration": 0.40625,
            "durationTicks": 260,
            "midi": 85,
            "name": "C#6",
            "ticks": 2880,
            "time": 4.5,
            "velocity": 0.5826771653543307
          },
          {
            "duration": 0.375,
            "durationTicks": 240,
            "midi": 82,
            "name": "A#5",
            "ticks": 3120,
            "time": 4.875,
            "velocity": 0.5354330708661418
          },
          {
            "duration": 0.41249999999999964,
            "durationTicks": 264,
            "midi": 84,
            "name": "C6",
            "ticks": 3360,
            "time": 5.25,
            "velocity": 0.6220472440944882
          },
          {
            "duration": 0.3015625000000002,
            "durationTicks": 193,
            "midi": 85,
            "name": "C#6",
            "ticks": 3600,
            "time": 5.625,
            "velocity": 0.6062992125984252
          }
        ],
        "endOfTrackTicks": 3840
      },
      {
        "channel": 0,
        "controlChanges": {},
        "pitchBends": [],
        "instrument": {
          "family": "piano",
          "name": "acoustic grand piano",
          "number": 0
        },
        "name": "Steinway Grand Piano",
        "notes": [
          {
            "duration": 2.6765625,
            "durationTicks": 1713,
            "midi": 56,
            "name": "G#3",
            "ticks": 0,
            "time": 0,
            "velocity": 0.4094488188976378
          },
          {
            "duration": 0.5171875,
            "durationTicks": 331,
            "midi": 68,
            "name": "G#4",
            "ticks": 0,
            "time": 0,
            "velocity": 0.4330708661417323
          },
          {
            "duration": 2.61875,
            "durationTicks": 1676,
            "midi": 63,
            "name": "D#4",
            "ticks": 240,
            "time": 0.375,
            "velocity": 0.44881889763779526
          },
          {
            "duration": 2.2781249999999997,
            "durationTicks": 1458,
            "midi": 68,
            "name": "G#4",
            "ticks": 480,
            "time": 0.75,
            "velocity": 0.5511811023622047
          },
          {
            "duration": 1.4796875000000003,
            "durationTicks": 947,
            "midi": 70,
            "name": "A#4",
            "ticks": 960,
            "time": 1.5,
            "velocity": 0.5511811023622047
          },
          {
            "duration": 2.8640624999999993,
            "durationTicks": 1833,
            "midi": 56,
            "name": "G#3",
            "ticks": 1920,
            "time": 3,
            "velocity": 0.41732283464566927
          },
          {
            "duration": 2.8484375,
            "durationTicks": 1823,
            "midi": 67,
            "name": "G4",
            "ticks": 1920,
            "time": 3,
            "velocity": 0.5039370078740157
          },
          {
            "duration": 2.4765625,
            "durationTicks": 1585,
            "midi": 64,
            "name": "E4",
            "ticks": 2160,
            "time": 3.375,
            "velocity": 0.3858267716535433
          },
          {
            "duration": 2.065625,
            "durationTicks": 1322,
            "midi": 70,
            "name": "A#4",
            "ticks": 2400,
            "time": 3.75,
            "velocity": 0.4409448818897638
          },
          {
            "duration": 1.2828124999999995,
            "durationTicks": 821,
            "midi": 75,
            "name": "D#5",
            "ticks": 2880,
            "time": 4.5,
            "velocity": 0.5354330708661418
          }
        ],
        "endOfTrackTicks": 3840
      }
    ]
  }