{
    "header": {
      "keySignatures": [
        {
          "key": "C",
          "scale": "major",
          "ticks": 0
        }
      ],
      "meta": [],
      "name": "",
      "ppq": 480,
      "tempos": [
        {
          "bpm": 80,
          "ticks": 0
        }
      ],
      "timeSignatures": [
        {
          "ticks": 0,
          "timeSignature": [
            4,
            4
          ],
          "measures": 0
        }
      ]
    },
    "tracks": [
      {
        "channel": 0,
        "controlChanges": {},
        "pitchBends": [],
        "instrument": {
          "family": "piano",
          "name": "acoustic grand piano",
          "number": 0
        },
        "name": "Steinway Grand Piano",
        "notes": [
          {
            "duration": 0.43593750000000003,
            "durationTicks": 279,
            "midi": 70,
            "name": "A#4",
            "ticks": 0,
            "time": 0,
            "velocity": 0.44881889763779526
          },
          {
            "duration": 0.425,
            "durationTicks": 272,
            "midi": 77,
            "name": "F5",
            "ticks": 0,
            "time": 0,
            "velocity": 0.5905511811023622
          },
          {
            "duration": 0.3843749999999999,
            "durationTicks": 246,
            "midi": 73,
            "name": "C#5",
            "ticks": 240,
            "time": 0.375,
            "velocity": 0.5984251968503937
          },
          {
            "duration": 0.4500000000000002,
            "durationTicks": 288,
            "midi": 70,
            "name": "A#4",
            "ticks": 480,
            "time": 0.75,
            "velocity": 0.44881889763779526
          },
          {
            "duration": 0.5140624999999999,
            "durationTicks": 329,
            "midi": 77,
            "name": "F5",
            "ticks": 480,
            "time": 0.75,
            "velocity": 0.5748031496062992
          },
          {
            "duration": 0.36406249999999996,
            "durationTicks": 233,
            "midi": 82,
            "name": "A#5",
            "ticks": 720,
            "time": 1.125,
            "velocity": 0.5354330708661418
          },
          {
            "duration": 1.171875,
            "durationTicks": 750,
            "midi": 78,
            "name": "F#5",
            "ticks": 960,
            "time": 1.5,
            "velocity": 0.5984251968503937
          },
          {
            "duration": 0.43593749999999964,
            "durationTicks": 279,
            "midi": 77,
            "name": "F5",
            "ticks": 1680,
            "time": 2.625,
            "velocity": 0.6377952755905512
          },
          {
            "duration": 0.3671875,
            "durationTicks": 235,
            "midi": 75,
            "name": "D#5",
            "ticks": 1920,
            "time": 3,
            "velocity": 0.6377952755905512
          },
          {
            "duration": 0.3765624999999999,
            "durationTicks": 241,
            "midi": 68,
            "name": "G#4",
            "ticks": 2160,
            "time": 3.375,
            "velocity": 0.3858267716535433
          },
          {
            "duration": 0.36562499999999964,
            "durationTicks": 234,
            "midi": 72,
            "name": "C5",
            "ticks": 2160,
            "time": 3.375,
            "velocity": 0.6299212598425197
          },
          {
            "duration": 0.5484375000000004,
            "durationTicks": 351,
            "midi": 75,
            "name": "D#5",
            "ticks": 2400,
            "time": 3.75,
            "velocity": 0.5748031496062992
          },
          {
            "duration": 1.5531250000000005,
            "durationTicks": 994,
            "midi": 68,
            "name": "G#4",
            "ticks": 2640,
            "time": 4.125,
            "velocity": 0.4094488188976378
          },
          {
            "duration": 0.3093749999999993,
            "durationTicks": 198,
            "midi": 80,
            "name": "G#5",
            "ticks": 2640,
            "time": 4.125,
            "velocity": 0.6535433070866141
          },
          {
            "duration": 0.0703125,
            "durationTicks": 45,
            "midi": 73,
            "name": "C#5",
            "ticks": 2824,
            "time": 4.4125000000000005,
            "velocity": 0.5433070866141733
          },
          {
            "duration": 0.07968750000000036,
            "durationTicks": 51,
            "midi": 75,
            "name": "D#5",
            "ticks": 2841,
            "time": 4.4390625,
            "velocity": 0.5275590551181102
          },
          {
            "duration": 0.796875,
            "durationTicks": 510,
            "midi": 77,
            "name": "F5",
            "ticks": 2880,
            "time": 4.5,
            "velocity": 0.5984251968503937
          },
          {
            "duration": 0.3781249999999998,
            "durationTicks": 242,
            "midi": 75,
            "name": "D#5",
            "ticks": 3360,
            "time": 5.25,
            "velocity": 0.4566929133858268
          },
          {
            "duration": 0.3546874999999998,
            "durationTicks": 227,
            "midi": 73,
            "name": "C#5",
            "ticks": 3600,
            "time": 5.625,
            "velocity": 0.5748031496062992
          }
        ],
        "endOfTrackTicks": 3827
      },
      {
        "channel": 0,
        "controlChanges": {},
        "pitchBends": [],
        "instrument": {
          "family": "piano",
          "name": "acoustic grand piano",
          "number": 0
        },
        "name": "Steinway Grand Piano",
        "notes": [
          {
            "duration": 0.36874999999999997,
            "durationTicks": 236,
            "midi": 58,
            "name": "A#3",
            "ticks": 0,
            "time": 0,
            "velocity": 0.5433070866141733
          },
          {
            "duration": 0.375,
            "durationTicks": 240,
            "midi": 65,
            "name": "F4",
            "ticks": 240,
            "time": 0.375,
            "velocity": 0.5984251968503937
          },
          {
            "duration": 0.4765625,
            "durationTicks": 305,
            "midi": 62,
            "name": "D4",
            "ticks": 480,
            "time": 0.75,
            "velocity": 0.5905511811023622
          },
          {
            "duration": 0.3921874999999999,
            "durationTicks": 251,
            "midi": 70,
            "name": "A#4",
            "ticks": 720,
            "time": 1.125,
            "velocity": 0.5433070866141733
          },
          {
            "duration": 0.3921874999999999,
            "durationTicks": 251,
            "midi": 63,
            "name": "D#4",
            "ticks": 960,
            "time": 1.5,
            "velocity": 0.5118110236220472
          },
          {
            "duration": 0.42500000000000027,
            "durationTicks": 272,
            "midi": 70,
            "name": "A#4",
            "ticks": 1200,
            "time": 1.875,
            "velocity": 0.3779527559055118
          },
          {
            "duration": 0.37812500000000027,
            "durationTicks": 242,
            "midi": 61,
            "name": "C#4",
            "ticks": 1440,
            "time": 2.25,
            "velocity": 0.49606299212598426
          },
          {
            "duration": 0.4343750000000002,
            "durationTicks": 278,
            "midi": 70,
            "name": "A#4",
            "ticks": 1680,
            "time": 2.625,
            "velocity": 0.3937007874015748
          },
          {
            "duration": 0.40468750000000053,
            "durationTicks": 259,
            "midi": 60,
            "name": "C4",
            "ticks": 1920,
            "time": 3,
            "velocity": 0.6220472440944882
          },
          {
            "duration": 0.4140625,
            "durationTicks": 265,
            "midi": 68,
            "name": "G#4",
            "ticks": 2160,
            "time": 3.375,
            "velocity": 0.4409448818897638
          },
          {
            "duration": 0.4093749999999998,
            "durationTicks": 262,
            "midi": 56,
            "name": "G#3",
            "ticks": 2400,
            "time": 3.75,
            "velocity": 0.5275590551181102
          },
          {
            "duration": 0.39218749999999947,
            "durationTicks": 251,
            "midi": 60,
            "name": "C4",
            "ticks": 2640,
            "time": 4.125,
            "velocity": 0.5275590551181102
          },
          {
            "duration": 0.40468750000000053,
            "durationTicks": 259,
            "midi": 49,
            "name": "C#3",
            "ticks": 2880,
            "time": 4.5,
            "velocity": 0.3858267716535433
          },
          {
            "duration": 0.40781250000000036,
            "durationTicks": 261,
            "midi": 56,
            "name": "G#3",
            "ticks": 3120,
            "time": 4.875,
            "velocity": 0.5669291338582677
          },
          {
            "duration": 0.38125000000000053,
            "durationTicks": 244,
            "midi": 63,
            "name": "D#4",
            "ticks": 3360,
            "time": 5.25,
            "velocity": 0.49606299212598426
          },
          {
            "duration": 0.3234375000000007,
            "durationTicks": 207,
            "midi": 65,
            "name": "F4",
            "ticks": 3600,
            "time": 5.625,
            "velocity": 0.5511811023622047
          }
        ],
        "endOfTrackTicks": 3807
      }
    ]
  }